<?xml version="1.0" encoding="UTF-8" standalone="no"?>
<svg xmlns="http://www.w3.org/2000/svg" version="1.1" x="0px" y="0px" width="100" height="100" viewBox="0 0 100 100">
  <g style="display:inline" transform="translate(1.9462545,4.7987376)">
    <path style="display:inline;fill:none;fill-rule:evenodd;stroke:#000000;stroke-width:5.6692915;stroke-linecap:round;stroke-linejoin:miter;stroke-miterlimit:4;stroke-dasharray:none;stroke-opacity:1" d="m 17.147339,59.408306 c -2.620326,12.670977 -0.08445,20.403946 -1.502601,22.45064" />
    <path style="display:inline;fill:none;fill-rule:evenodd;stroke:#000000;stroke-width:5.6692915;stroke-linecap:round;stroke-linejoin:miter;stroke-miterlimit:4;stroke-dasharray:none;stroke-opacity:1" d="M 22.032395,59.585082 C 20.922509,71.74793 24.39471,77.749974 23.181444,81.240228" />
    <path style="display:inline;fill:none;fill-rule:evenodd;stroke:#000000;stroke-width:5.6692915;stroke-linecap:round;stroke-linejoin:miter;stroke-miterlimit:4;stroke-dasharray:none;stroke-opacity:1" d="M 15.467961,39.078986 C 8.6049935,44.148565 7.9588931,56.742893 9.8111064,59.938636" />
    <path style="display:inline;fill:none;fill-rule:evenodd;stroke:#000000;stroke-width:5.6692915;stroke-linecap:round;stroke-linejoin:miter;stroke-miterlimit:4;stroke-dasharray:none;stroke-opacity:1" d="m 23.358221,35.455064 c 6.862968,5.069579 7.95101,17.840684 7.954952,21.213203" />
    <circle style="display:inline;fill:#000000;fill-opacity:1;stroke:none;stroke-width:8.10526276;stroke-linecap:butt;stroke-linejoin:round;stroke-miterlimit:4;stroke-dasharray:none;stroke-opacity:1" cx="13.324544" cy="31.565975" r="6.805903" />
    <rect style="display:inline;fill:#000000;fill-opacity:1;stroke:none;stroke-width:8.4881382;stroke-linecap:butt;stroke-linejoin:round;stroke-miterlimit:4;stroke-dasharray:none;stroke-opacity:1" width="11.01568" height="30.066898" x="14.4073" y="31.654366" rx="4.1542354" ry="4.6766629" />
    <rect style="display:inline;fill:#000000;fill-opacity:1;stroke:none;stroke-width:2.58679843;stroke-linecap:butt;stroke-linejoin:round;stroke-miterlimit:4;stroke-dasharray:none;stroke-opacity:1" ry="1.4630755" rx="1.0831263" y="-0.063243799" x="18.714436" height="32.730999" width="3.0195007" />
    <use style="display:inline" y="0" x="0" height="100%" width="100%" transform="matrix(0.33320157,0.57712204,-1,0,48.945526,-5.759834)" href="#rect1" />
    <rect style="display:inline;fill:#000000;fill-opacity:1;stroke:none;stroke-width:2.72308922;stroke-linecap:butt;stroke-linejoin:round;stroke-miterlimit:4;stroke-dasharray:none;stroke-opacity:1" width="63.269501" height="6.0122466" x="9.8706856" y="-0.063243799" rx="0.84461808" ry="0.92522299" id="rect1" />
    <use style="display:inline" x="0" y="0" width="100%" height="100%" transform="matrix(0,1.4306973,-1,0,73.076942,-14.185207)" href="#rect1" />
    <use style="display:inline" height="100%" width="100%" y="0" x="0" transform="matrix(0.27336527,0.47348254,-1,0,70.176573,55.825659)" href="#rect1" />
    <use style="display:inline" x="0" y="0" width="100%" height="100%" transform="matrix(-0.27336527,0.47348254,1,0,70.091553,55.825659)" href="#rect1" />
    <g style="display:inline;stroke:#fffff1;stroke-width:0.37795275;stroke-miterlimit:4;stroke-dasharray:none;stroke-opacity:1" transform="matrix(0.78783777,-0.41318838,0.41318838,0.78783777,-9.4960082,11.583038)">
      <path style="display:inline;fill:none;fill-rule:evenodd;stroke:#fffff1;stroke-width:0.37795275;stroke-linecap:square;stroke-linejoin:round;stroke-miterlimit:4;stroke-dasharray:none;stroke-opacity:1" d="m 12.904699,28.207219 2.386485,2.209709" />
      <path style="display:inline;fill:none;fill-rule:evenodd;stroke:#fffff1;stroke-width:0.37795275;stroke-linecap:square;stroke-linejoin:round;stroke-miterlimit:4;stroke-dasharray:none;stroke-opacity:1" d="m 15.291184,28.207219 -2.386485,2.209709" />
    </g>
    <g style="display:inline;stroke:#fffff1;stroke-width:0.37795275;stroke-miterlimit:4;stroke-dasharray:none;stroke-opacity:1" transform="matrix(0.78783777,-0.41318838,0.41318838,0.78783777,-12.89896,13.306611)">
      <path style="display:inline;fill:none;fill-rule:evenodd;stroke:#fffff1;stroke-width:0.37795275;stroke-linecap:square;stroke-linejoin:round;stroke-miterlimit:4;stroke-dasharray:none;stroke-opacity:1" d="m 12.904699,28.207219 2.386485,2.209709" />
      <path style="display:inline;fill:none;fill-rule:evenodd;stroke:#fffff1;stroke-width:0.37795275;stroke-linecap:square;stroke-linejoin:round;stroke-miterlimit:4;stroke-dasharray:none;stroke-opacity:1" d="m 15.291184,28.207219 -2.386485,2.209709" />
    </g>
    <path style="display:inline;fill:#5e0000;fill-opacity:1;fill-rule:evenodd;stroke:#fffff1;stroke-width:0.33623204;stroke-linecap:square;stroke-linejoin:round;stroke-miterlimit:4;stroke-dasharray:none;stroke-opacity:1" d="m 13.794281,33.585499 c 1.097223,1.827074 -0.500812,2.58577 -1.464985,0.77259" />
    <path style="display:inline;fill:none;fill-rule:evenodd;stroke:#fffff1;stroke-width:0.33623204;stroke-linecap:square;stroke-linejoin:round;stroke-miterlimit:4;stroke-dasharray:none;stroke-opacity:1" d="m 16.794281,32.507374 c -1.621527,0.108324 -4.485187,1.288895 -5.339985,2.71009" />
  </g>
</svg>
